# xmcd CD database file
#
# Track frame offsets:
#	150
#	78662
#	145867
#	190943
#
# Disc length: 3761 seconds
#
# Revision: 1
# Processed by: cddbd v1.5.2PL0 Copyright (c) Steve Scherf et al.
# Submitted via: CDex 1.70beta2
#
DISCID=310eaf04
DTITLE=Eisenrot - Eisenrot
DYEAR=2007
DGENRE=Jazz
TTITLE0=Im Offenen
TTITLE1=Gelber Ort
TTITLE2=Abseits
TTITLE3=Ufer
EXTD=YEAR: 2007
EXTT0=
EXTT1=
EXTT2=
EXTT3=
PLAYORDER=
